<?xml version="1.0" standalone="no"?>
<!DOCTYPE svg PUBLIC "-//W3C//DTD SVG 20010904//EN"
 "http://www.w3.org/TR/2001/REC-SVG-20010904/DTD/svg10.dtd">
<svg version="1.0" xmlns="http://www.w3.org/2000/svg"
 width="268.000000pt" height="269.000000pt" viewBox="0 0 268.000000 269.000000"
 preserveAspectRatio="xMidYMid meet">
<metadata>
Created by potrace 1.10, written by Peter Selinger 2001-2011
</metadata>
<g transform="translate(0.000000,269.000000) scale(0.100000,-0.100000)"
fill="#ca1f28" stroke="none">
<path d="M970 2090 c-112 -13 -211 -99 -279 -242 l-46 -97 -50 25 c-28 14 -83
32 -124 40 -125 27 -219 3 -306 -77 -95 -88 -134 -198 -116 -331 39 -286 259
-510 622 -631 114 -39 419 -102 429 -90 4 5 36 55 72 113 203 327 276 530 265
734 -6 123 -25 196 -77 303 -89 181 -229 272 -390 253z"/>
<path d="M1757 1996 c-128 -47 -225 -192 -257 -384 -23 -136 9 -281 103 -467
67 -135 168 -295 185 -295 42 0 272 54 363 85 133 47 223 100 316 188 60 57
82 87 120 164 42 84 47 102 51 177 6 112 -14 173 -78 237 -62 62 -102 81 -180
87 -61 4 -121 -10 -220 -52 -11 -5 -24 13 -49 70 -37 83 -96 150 -158 179 -49
24 -147 29 -196 11z"/>
</g>
</svg>
